<svg  width="1440" height="536" viewBox="0 0 1440 536" fill="none" xmlns="http://www.w3.org/2000/svg">
<g filter="url(#filter0_d_234_4)">
<path d="M-3 451.521C23.9476 446.386 92.9476 440.091 153.367 455.994L269.844 482.83C285.8 486.143 330.795 493.068 383.13 494.26C400.682 494.757 448.017 493.167 496.948 482.83C530.101 476.369 617.574 445.259 702.246 372.503L938.924 145.387C969.24 121.532 1044.34 69.4496 1102.21 51.9562C1133.76 40.0289 1214.11 15.0809 1283.04 10.7076C1312.64 6.40051 1385.69 0.370593 1441 10.7076V537H-3V451.521Z" fill="#3926C7"/>
<path d="M-3 451.521C23.9476 446.386 92.9476 440.091 153.367 455.994L269.844 482.83C285.8 486.143 330.795 493.068 383.13 494.26C400.682 494.757 448.017 493.167 496.948 482.83C530.101 476.369 617.574 445.259 702.246 372.503L938.924 145.387C969.24 121.532 1044.34 69.4496 1102.21 51.9562C1133.76 40.0289 1214.11 15.0809 1283.04 10.7076C1312.64 6.40051 1385.69 0.370593 1441 10.7076V537H-3V451.521Z" stroke="black"/>
</g>
<g filter="url(#filter1_d_234_4)">
<path d="M772.778 426.378L773.889 419L778.333 424.676H785L781.667 430.919L785 436.595L777.222 435.459L772.222 440V432.622L765 429.216L772.778 426.378Z" fill="#DDA6BC"/>
</g>
<g filter="url(#filter2_d_234_4)">
<path d="M1037.44 120.919L1038.22 116L1041.33 119.784H1046L1043.67 123.946L1046 127.73L1040.56 126.973L1037.06 130V125.081L1032 122.811L1037.44 120.919Z" fill="#DDA6BC"/>
</g>
<g filter="url(#filter3_d_234_4)">
<path d="M1215.5 158.162L1216 155L1218 157.432H1221L1219.5 160.108L1221 162.541L1217.5 162.054L1215.25 164V160.838L1212 159.378L1215.5 158.162Z" fill="#DDA6BC"/>
</g>
<g filter="url(#filter4_d_234_4)">
<path d="M1222.5 230.162L1223 227L1225 229.432H1228L1226.5 232.108L1228 234.541L1224.5 234.054L1222.25 236V232.838L1219 231.378L1222.5 230.162Z" fill="#DDA6BC"/>
</g>
<g filter="url(#filter5_d_234_4)">
<line x1="1099.27" y1="161.577" x2="1142.27" y2="188.577" stroke="#C8BFFC"/>
<path d="M1098.96 160.722L1100.68 158.701L1100.99 161.269L1103.05 162.545L1100.85 163.797L1100.82 166.153L1098.63 164.321L1096.23 164.738L1097.62 162.505L1096.02 160.092L1098.96 160.722Z" fill="#DDA6BC"/>
<line x1="1142.31" y1="189.605" x2="1160.31" y2="203.605" stroke="#C8BFFC"/>
<path d="M1141.96 187.722L1143.68 185.701L1143.99 188.269L1146.05 189.545L1143.85 190.797L1143.82 193.153L1141.63 191.321L1139.23 191.738L1140.62 189.505L1139.02 187.092L1141.96 187.722Z" fill="#DDA6BC"/>
<line x1="1164" y1="205.5" x2="1237" y2="205.5" stroke="#C8BFFC"/>
<path d="M1236.22 204.718L1237.05 201.381L1238.89 204.175L1242.02 204.461L1240.19 207.182L1241.52 209.929L1237.92 209.075L1235.38 210.943L1235.69 207.558L1232.45 205.687L1236.22 204.718Z" fill="#DDA6BC"/>
<line x1="1164.48" y1="210.845" x2="1177.48" y2="250.845" stroke="#C8BFFC"/>
<path d="M1176.9 250.046L1180.85 246.008L1181.14 251.503L1185.33 254.509L1180.48 256.847L1180.07 261.841L1175.69 257.636L1170.54 258.175L1173.8 253.636L1170.76 248.285L1176.9 250.046Z" fill="#DDA6BC"/>
<path d="M1161.75 202.859L1166.02 197.858L1166.79 204.215L1171.89 207.373L1166.44 210.471L1166.36 216.301L1160.94 211.767L1155.01 212.8L1158.43 207.273L1154.48 201.301L1161.75 202.859Z" fill="#DDA6BC"/>
</g>
<g filter="url(#filter6_d_234_4)">
<path d="M1199.21 374.666L1198.82 368.101L1203.78 372.149L1209.65 370.888L1207.87 376.896L1211.85 381.154L1204.8 381.647L1201.24 386.503L1199.88 380.148L1192.89 378.58L1199.21 374.666Z" fill="#DDA6BC"/>
<path d="M1199.21 374.666L1198.82 368.101L1203.78 372.149L1209.65 370.888L1207.87 376.896L1211.85 381.154L1204.8 381.647L1201.24 386.503L1199.88 380.148L1192.89 378.58L1199.21 374.666Z" fill="#DDA6BC"/>
<path d="M1272.97 349.243L1272.73 345.27L1275.73 347.72L1279.28 346.957L1278.21 350.592L1280.62 353.169L1276.35 353.467L1274.2 356.405L1273.37 352.56L1269.14 351.611L1272.97 349.243Z" fill="#DDA6BC"/>
<path d="M1272.97 349.243L1272.73 345.27L1275.73 347.72L1279.28 346.957L1278.21 350.592L1280.62 353.169L1276.35 353.467L1274.2 356.405L1273.37 352.56L1269.14 351.611L1272.97 349.243Z" fill="#DDA6BC"/>
<path d="M1236.44 443.63L1236.28 440.88L1238.35 442.576L1240.81 442.048L1240.07 444.564L1241.74 446.348L1238.78 446.555L1237.29 448.589L1236.72 445.927L1233.79 445.27L1236.44 443.63Z" fill="#DDA6BC"/>
<path d="M1236.44 443.63L1236.28 440.88L1238.35 442.576L1240.81 442.048L1240.07 444.564L1241.74 446.348L1238.78 446.555L1237.29 448.589L1236.72 445.927L1233.79 445.27L1236.44 443.63Z" fill="#DDA6BC"/>
<line x1="1204.94" y1="376.504" x2="1250.94" y2="370.504" stroke="#C8BFFC"/>
<path d="M1199.21 374.666L1198.82 368.101L1203.78 372.149L1209.65 370.888L1207.87 376.896L1211.85 381.154L1204.8 381.647L1201.24 386.503L1199.88 380.148L1192.89 378.58L1199.21 374.666Z" fill="#DDA6BC"/>
<line x1="1251.49" y1="373.09" x2="1238.49" y2="444.09" stroke="#C8BFFC"/>
<line x1="1250.71" y1="369.594" x2="1275.71" y2="351.594" stroke="#C8BFFC"/>
<path d="M1248.2 368.16L1248.48 362.728L1252.19 366.513L1257.13 366.017L1255.11 370.791L1257.99 374.658L1252.15 374.413L1248.78 378.077L1248.24 372.728L1242.64 370.795L1248.2 368.16Z" fill="#FFD4B1"/>
<path d="M1272.97 349.243L1272.73 345.27L1275.73 347.72L1279.28 346.957L1278.21 350.592L1280.62 353.169L1276.35 353.467L1274.2 356.405L1273.37 352.56L1269.14 351.611L1272.97 349.243Z" fill="#DDA6BC"/>
<path d="M1236.44 443.63L1236.28 440.88L1238.35 442.576L1240.81 442.048L1240.07 444.564L1241.74 446.348L1238.78 446.555L1237.29 448.589L1236.72 445.927L1233.79 445.27L1236.44 443.63Z" fill="#FFD4B1"/>
</g>
<g filter="url(#filter7_d_234_4)">
<path fill-rule="evenodd" clip-rule="evenodd" d="M1440 456.556C1313.2 421.356 1233.17 494.889 1209 536.056H1032C1110.8 295.256 1336.83 272.389 1440 291.056V456.556ZM1236.5 467C1272.67 467 1302 437.675 1302 401.5C1302 365.325 1272.67 336 1236.5 336C1200.33 336 1171 365.325 1171 401.5C1171 437.675 1200.33 467 1236.5 467Z" fill="url(#paint0_linear_234_4)" shape-rendering="crispEdges"/>
<path d="M1209 536.056V538.056H1210.15L1210.72 537.068L1209 536.056ZM1440 456.556L1439.47 458.483L1442 459.186V456.556H1440ZM1032 536.056L1030.1 535.434L1029.24 538.056H1032V536.056ZM1440 291.056H1442V289.385L1440.36 289.088L1440 291.056ZM1210.72 537.068C1234.56 496.463 1313.76 423.587 1439.47 458.483L1440.53 454.628C1312.64 419.124 1231.77 493.315 1207.28 535.043L1210.72 537.068ZM1032 538.056H1209V534.056H1032V538.056ZM1440.36 289.088C1388.45 279.696 1305.75 280.756 1226.08 314.413C1146.34 348.104 1069.69 414.441 1030.1 535.434L1033.9 536.678C1073.11 416.87 1148.88 351.374 1227.64 318.098C1306.48 284.788 1388.38 283.748 1439.64 293.024L1440.36 289.088ZM1442 456.556V291.056H1438V456.556H1442ZM1300 401.5C1300 436.57 1271.57 465 1236.5 465V469C1273.78 469 1304 438.779 1304 401.5H1300ZM1236.5 338C1271.57 338 1300 366.43 1300 401.5H1304C1304 364.221 1273.78 334 1236.5 334V338ZM1173 401.5C1173 366.43 1201.43 338 1236.5 338V334C1199.22 334 1169 364.221 1169 401.5H1173ZM1236.5 465C1201.43 465 1173 436.57 1173 401.5H1169C1169 438.779 1199.22 469 1236.5 469V465Z" fill="#FBCAC1"/>
</g>
<g filter="url(#filter8_d_234_4)">
<line x1="1352.53" y1="77.5019" x2="1375.53" y2="79.5019" stroke="#C8BFFC"/>
<line x1="1374.98" y1="101" x2="1374.98" y2="80" stroke="#C8BFFC"/>
<line x1="1375.53" y1="101.503" x2="1414.53" y2="105.503" stroke="#C8BFFC"/>
<line x1="1413.98" y1="106.024" x2="1412.98" y2="127.024" stroke="#C8BFFC"/>
<line x1="1371.82" y1="104.366" x2="1357.82" y2="117.366" stroke="#C8BFFC"/>
<line x1="1356.97" y1="117.089" x2="1350.97" y2="150.089" stroke="#C8BFFC"/>
<line x1="1350.97" y1="149.892" x2="1360.97" y2="194.892" stroke="#C8BFFC"/>
<line x1="1350.34" y1="150.478" x2="1311.34" y2="138.478" stroke="#C8BFFC"/>
<line x1="1311.84" y1="138.344" x2="1292.84" y2="158.344" stroke="#C8BFFC"/>
<line x1="1311.12" y1="138.346" x2="1288.12" y2="114.346" stroke="#C8BFFC"/>
<path d="M1348.19 148.187L1350.46 142.729L1352.88 147.958L1358.11 149.255L1354.31 153.408L1355.84 158.421L1349.95 156.035L1345.16 158.554L1346.56 152.88L1341.54 148.856L1348.19 148.187Z" fill="#DDA6BC"/>
<path d="M1370.19 99.187L1372.46 93.7293L1374.88 98.9585L1380.11 100.255L1376.31 104.408L1377.84 109.421L1371.95 107.035L1367.16 109.554L1368.56 103.88L1363.54 99.8562L1370.19 99.187Z" fill="#DDA6BC"/>
<path d="M1360.93 193.402L1362.42 191.414L1362.86 193.786L1364.86 194.847L1362.89 196.148L1363.01 198.343L1360.85 196.773L1358.65 197.31L1359.8 195.145L1358.16 192.997L1360.93 193.402Z" fill="#DDA6BC"/>
<path d="M1290.46 157.712L1290.95 155.102L1292.5 157.17L1294.92 157.246L1293.64 159.428L1294.78 161.483L1291.97 160.991L1290.11 162.548L1290.19 159.925L1287.6 158.632L1290.46 157.712Z" fill="#DDA6BC"/>
<path d="M1309.9 139.453L1309.66 142.132L1311.74 140.54L1314.12 141.13L1313.47 138.651L1315.15 136.961L1312.28 136.67L1310.88 134.639L1310.24 137.22L1307.37 137.772L1309.9 139.453Z" fill="#DDA6BC"/>
<path d="M1350.74 75.5095L1352.81 70.5663L1354.99 75.3025L1359.73 76.4772L1356.28 80.2383L1357.68 84.7787L1352.34 82.6176L1348 84.8991L1349.27 79.76L1344.72 76.1156L1350.74 75.5095Z" fill="#DDA6BC"/>
<path d="M1374.42 78.6003L1374.99 76.2497L1376.3 78.2067L1378.5 78.394L1377.23 80.3158L1378.17 82.2416L1375.64 81.6567L1373.86 82.982L1374.07 80.6002L1371.78 79.298L1374.42 78.6003Z" fill="#DDA6BC"/>
<path d="M1411.39 125.227L1412.41 122.776L1413.5 125.124L1415.85 125.706L1414.14 127.571L1414.83 129.821L1412.18 128.75L1410.03 129.881L1410.66 127.334L1408.4 125.527L1411.39 125.227Z" fill="#DDA6BC"/>
<path d="M1412.25 106.719L1409.46 105.494L1412.18 104.305L1412.89 101.624L1414.99 103.623L1417.59 102.881L1416.3 105.889L1417.55 108.379L1414.64 107.601L1412.53 110.146L1412.25 106.719Z" fill="#DDA6BC"/>
<path d="M1355.87 116.796L1356.75 114.673L1357.69 116.707L1359.73 117.211L1358.25 118.827L1358.85 120.777L1356.55 119.848L1354.69 120.828L1355.24 118.621L1353.28 117.056L1355.87 116.796Z" fill="#DDA6BC"/>
<line x1="1262.5" y1="110.5" x2="1287.5" y2="111.5" stroke="#C8BFFC"/>
<path d="M1284.02 110.555L1285.61 104.859L1288.65 109.752L1294 110.396L1290.73 114.985L1292.88 119.771L1286.73 118.127L1282.29 121.215L1282.98 115.412L1277.5 112.036L1284.02 110.555Z" fill="#DDA6BC"/>
<path d="M1262.41 110.144L1263.6 107.477L1264.73 110.088L1267.3 110.793L1265.37 112.797L1266.06 115.291L1263.18 114.041L1260.78 115.226L1261.55 112.441L1259.12 110.393L1262.41 110.144Z" fill="#DDA6BC"/>
</g>
<g filter="url(#filter9_d_234_4)">
<line x1="916.664" y1="335.63" x2="948.664" y2="306.63" stroke="#C8BFFC"/>
<line x1="949.266" y1="306.577" x2="984.266" y2="328.577" stroke="#C8BFFC"/>
<line x1="984.093" y1="328.509" x2="1079.09" y2="346.509" stroke="#C8BFFC"/>
<path d="M947 304.5L948 298L952 303H958L955 308.5L958 313.5L951 312.5L946.5 316.5V310L940 307L947 304.5Z" fill="#DDA6BC"/>
<path d="M1077.64 345.414L1078 342.232L1080.11 344.569L1083.1 344.429L1081.73 347.172L1083.34 349.532L1079.82 349.209L1077.66 351.257L1077.52 348.098L1074.2 346.792L1077.64 345.414Z" fill="#DDA6BC"/>
<path d="M983.246 327.6L984.163 324.533L985.821 327.21L988.794 327.609L986.951 330.061L988.114 332.672L984.71 331.724L982.221 333.353L982.642 330.219L979.615 328.339L983.246 327.6Z" fill="#DDA6BC"/>
<path d="M914.246 334.6L915.163 331.533L916.821 334.21L919.794 334.609L917.951 337.061L919.114 339.672L915.71 338.724L913.221 340.353L913.642 337.219L910.615 335.339L914.246 334.6Z" fill="#DDA6BC"/>
</g>
<g filter="url(#filter10_d_234_4)">
<path d="M814 536C841.5 510 892 439.4 874 365L857.5 293C862.833 291.667 875.5 294.3 883.5 315.5C887.833 327.167 899 359.5 909 395.5C927.5 377.667 971 321.4 997 239C999.333 239.833 1005.1 243.9 1009.5 253.5C1011.17 261.833 1007.5 296.5 979.5 368.5L1064.5 229C1068 234.833 1073.5 252.5 1067.5 276.5L1007.5 398L1061.5 384.5C1074.5 384.667 1103.7 385.6 1116.5 388L1099.5 407.5C1092.33 410.167 1075.9 415.6 1067.5 416C1054 423.167 1025.5 444.2 1019.5 471C1011.33 494.833 1008.9 535.8 1064.5 509L1112.5 481C1119.17 477.333 1137.6 470.7 1158 473.5L1089 536H814Z" fill="#FED0C1"/>
<path d="M814 536C841.5 510 892 439.4 874 365L857.5 293C862.833 291.667 875.5 294.3 883.5 315.5C887.833 327.167 899 359.5 909 395.5C927.5 377.667 971 321.4 997 239C999.333 239.833 1005.1 243.9 1009.5 253.5C1011.17 261.833 1007.5 296.5 979.5 368.5L1064.5 229C1068 234.833 1073.5 252.5 1067.5 276.5L1007.5 398L1061.5 384.5C1074.5 384.667 1103.7 385.6 1116.5 388L1099.5 407.5C1092.33 410.167 1075.9 415.6 1067.5 416C1054 423.167 1025.5 444.2 1019.5 471C1011.33 494.833 1008.9 535.8 1064.5 509L1112.5 481C1119.17 477.333 1137.6 470.7 1158 473.5L1089 536H814Z" stroke="#F494A3"/>
</g>
<g filter="url(#filter11_d_234_4)">
<line x1="668.108" y1="443.512" x2="686.108" y2="447.512" stroke="#C8BFFC"/>
<line x1="668.5" y1="445.014" x2="667.5" y2="480.014" stroke="#C8BFFC"/>
<line x1="667.387" y1="479.683" x2="685.387" y2="501.683" stroke="#C8BFFC"/>
<line x1="686" y1="501.5" x2="714" y2="501.5" stroke="#C8BFFC"/>
<line x1="714.328" y1="501.623" x2="737.328" y2="521.623" stroke="#C8BFFC"/>
<line x1="737.3" y1="525.4" x2="721.3" y2="537.4" stroke="#C8BFFC"/>
<line x1="685.348" y1="503.359" x2="650.348" y2="537.359" stroke="#C8BFFC"/>
<path d="M735.465 522.96L734.869 517.3L739.422 520.557L744.574 519.176L743.229 524.461L746.924 527.948L740.69 528.723L737.722 533.1L736.267 527.67L730.015 526.659L735.465 522.96Z" fill="#DDA6BC"/>
<path d="M712.213 501.494L711.876 498.299L714.446 500.137L717.354 499.358L716.595 502.341L718.68 504.308L715.162 504.746L713.487 507.216L712.666 504.151L709.137 503.581L712.213 501.494Z" fill="#DDA6BC"/>
<path d="M684.213 501.494L683.876 498.299L686.446 500.137L689.354 499.358L688.595 502.341L690.68 504.308L687.162 504.746L685.487 507.216L684.666 504.151L681.137 503.581L684.213 501.494Z" fill="#DDA6BC"/>
<path d="M665.02 479.802L663.999 476.757L666.906 477.994L669.575 476.604L669.481 479.68L671.943 481.149L668.603 482.338L667.503 485.113L666.037 482.299L662.469 482.507L665.02 479.802Z" fill="#DDA6BC"/>
<path d="M666.716 444.786L665.293 442.703L667.754 443.017L669.474 441.395L670.061 443.74L672.235 444.323L669.966 445.936L669.728 448.268L668.019 446.455L665.367 447.375L666.716 444.786Z" fill="#DDA6BC"/>
<path d="M684.794 448.167L682.946 447.109L684.931 446.44L685.641 444.575L686.95 446.14L688.817 445.783L687.687 447.844L688.365 449.703L686.398 448.956L684.722 450.631L684.794 448.167Z" fill="#DDA6BC"/>
</g>
<path d="M1303.5 536.5L1300 523L1311.5 536.5H1303.5Z" fill="#827FFF"/>
<path d="M1337.5 536.5L1335.5 510.5L1350.5 536.5H1337.5Z" fill="#827FFF"/>
<path d="M1369 536.5L1374 504L1380.5 536.5H1369Z" fill="#827FFF"/>
<path d="M1399.5 536.5L1413 510.5L1412 536.5H1399.5Z" fill="#827FFF"/>
<g filter="url(#filter12_d_234_4)">
<path d="M536.944 529.432L538.222 521L543.333 527.486H551L547.167 534.622L551 541.108L542.056 539.811L536.306 545V536.568L528 532.676L536.944 529.432Z" fill="#DDA6BC"/>
</g>
<g filter="url(#filter13_d_234_4)">
<path d="M186.444 531.919L187.222 527L190.333 530.784H195L192.667 534.946L195 538.73L189.556 537.973L186.056 541V536.081L181 533.811L186.444 531.919Z" fill="#DDA6BC"/>
</g>
<defs>
<filter id="filter0_d_234_4" x="-7.5" y="0.5" width="1453" height="541" filterUnits="userSpaceOnUse" color-interpolation-filters="sRGB">
<feFlood flood-opacity="0" result="BackgroundImageFix"/>
<feColorMatrix in="SourceAlpha" type="matrix" values="0 0 0 0 0 0 0 0 0 0 0 0 0 0 0 0 0 0 127 0" result="hardAlpha"/>
<feOffset/>
<feGaussianBlur stdDeviation="2"/>
<feComposite in2="hardAlpha" operator="out"/>
<feColorMatrix type="matrix" values="0 0 0 0 0 0 0 0 0 0 0 0 0 0 0 0 0 0 0.25 0"/>
<feBlend mode="normal" in2="BackgroundImageFix" result="effect1_dropShadow_234_4"/>
<feBlend mode="normal" in="SourceGraphic" in2="effect1_dropShadow_234_4" result="shape"/>
</filter>
<filter id="filter1_d_234_4" x="761" y="419" width="28" height="29" filterUnits="userSpaceOnUse" color-interpolation-filters="sRGB">
<feFlood flood-opacity="0" result="BackgroundImageFix"/>
<feColorMatrix in="SourceAlpha" type="matrix" values="0 0 0 0 0 0 0 0 0 0 0 0 0 0 0 0 0 0 127 0" result="hardAlpha"/>
<feOffset dy="4"/>
<feGaussianBlur stdDeviation="2"/>
<feComposite in2="hardAlpha" operator="out"/>
<feColorMatrix type="matrix" values="0 0 0 0 0 0 0 0 0 0 0 0 0 0 0 0 0 0 0.3 0"/>
<feBlend mode="normal" in2="BackgroundImageFix" result="effect1_dropShadow_234_4"/>
<feBlend mode="normal" in="SourceGraphic" in2="effect1_dropShadow_234_4" result="shape"/>
</filter>
<filter id="filter2_d_234_4" x="1028" y="116" width="22" height="22" filterUnits="userSpaceOnUse" color-interpolation-filters="sRGB">
<feFlood flood-opacity="0" result="BackgroundImageFix"/>
<feColorMatrix in="SourceAlpha" type="matrix" values="0 0 0 0 0 0 0 0 0 0 0 0 0 0 0 0 0 0 127 0" result="hardAlpha"/>
<feOffset dy="4"/>
<feGaussianBlur stdDeviation="2"/>
<feComposite in2="hardAlpha" operator="out"/>
<feColorMatrix type="matrix" values="0 0 0 0 0 0 0 0 0 0 0 0 0 0 0 0 0 0 0.3 0"/>
<feBlend mode="normal" in2="BackgroundImageFix" result="effect1_dropShadow_234_4"/>
<feBlend mode="normal" in="SourceGraphic" in2="effect1_dropShadow_234_4" result="shape"/>
</filter>
<filter id="filter3_d_234_4" x="1208" y="155" width="17" height="17" filterUnits="userSpaceOnUse" color-interpolation-filters="sRGB">
<feFlood flood-opacity="0" result="BackgroundImageFix"/>
<feColorMatrix in="SourceAlpha" type="matrix" values="0 0 0 0 0 0 0 0 0 0 0 0 0 0 0 0 0 0 127 0" result="hardAlpha"/>
<feOffset dy="4"/>
<feGaussianBlur stdDeviation="2"/>
<feComposite in2="hardAlpha" operator="out"/>
<feColorMatrix type="matrix" values="0 0 0 0 0 0 0 0 0 0 0 0 0 0 0 0 0 0 0.3 0"/>
<feBlend mode="normal" in2="BackgroundImageFix" result="effect1_dropShadow_234_4"/>
<feBlend mode="normal" in="SourceGraphic" in2="effect1_dropShadow_234_4" result="shape"/>
</filter>
<filter id="filter4_d_234_4" x="1215" y="227" width="17" height="17" filterUnits="userSpaceOnUse" color-interpolation-filters="sRGB">
<feFlood flood-opacity="0" result="BackgroundImageFix"/>
<feColorMatrix in="SourceAlpha" type="matrix" values="0 0 0 0 0 0 0 0 0 0 0 0 0 0 0 0 0 0 127 0" result="hardAlpha"/>
<feOffset dy="4"/>
<feGaussianBlur stdDeviation="2"/>
<feComposite in2="hardAlpha" operator="out"/>
<feColorMatrix type="matrix" values="0 0 0 0 0 0 0 0 0 0 0 0 0 0 0 0 0 0 0.3 0"/>
<feBlend mode="normal" in2="BackgroundImageFix" result="effect1_dropShadow_234_4"/>
<feBlend mode="normal" in="SourceGraphic" in2="effect1_dropShadow_234_4" result="shape"/>
</filter>
<filter id="filter5_d_234_4" x="1092.02" y="158.701" width="153.996" height="111.141" filterUnits="userSpaceOnUse" color-interpolation-filters="sRGB">
<feFlood flood-opacity="0" result="BackgroundImageFix"/>
<feColorMatrix in="SourceAlpha" type="matrix" values="0 0 0 0 0 0 0 0 0 0 0 0 0 0 0 0 0 0 127 0" result="hardAlpha"/>
<feOffset dy="4"/>
<feGaussianBlur stdDeviation="2"/>
<feComposite in2="hardAlpha" operator="out"/>
<feColorMatrix type="matrix" values="0 0 0 0 0 0 0 0 0 0 0 0 0 0 0 0 0 0 0.3 0"/>
<feBlend mode="normal" in2="BackgroundImageFix" result="effect1_dropShadow_234_4"/>
<feBlend mode="normal" in="SourceGraphic" in2="effect1_dropShadow_234_4" result="shape"/>
</filter>
<filter id="filter6_d_234_4" x="1188.89" y="345.27" width="95.728" height="111.318" filterUnits="userSpaceOnUse" color-interpolation-filters="sRGB">
<feFlood flood-opacity="0" result="BackgroundImageFix"/>
<feColorMatrix in="SourceAlpha" type="matrix" values="0 0 0 0 0 0 0 0 0 0 0 0 0 0 0 0 0 0 127 0" result="hardAlpha"/>
<feOffset dy="4"/>
<feGaussianBlur stdDeviation="2"/>
<feComposite in2="hardAlpha" operator="out"/>
<feColorMatrix type="matrix" values="0 0 0 0 0 0 0 0 0 0 0 0 0 0 0 0 0 0 0.35 0"/>
<feBlend mode="normal" in2="BackgroundImageFix" result="effect1_dropShadow_234_4"/>
<feBlend mode="normal" in="SourceGraphic" in2="effect1_dropShadow_234_4" result="shape"/>
</filter>
<filter id="filter7_d_234_4" x="1015.24" y="264" width="478.759" height="320.055" filterUnits="userSpaceOnUse" color-interpolation-filters="sRGB">
<feFlood flood-opacity="0" result="BackgroundImageFix"/>
<feColorMatrix in="SourceAlpha" type="matrix" values="0 0 0 0 0 0 0 0 0 0 0 0 0 0 0 0 0 0 127 0" result="hardAlpha"/>
<feOffset dx="19" dy="13"/>
<feGaussianBlur stdDeviation="16.5"/>
<feComposite in2="hardAlpha" operator="out"/>
<feColorMatrix type="matrix" values="0 0 0 0 0 0 0 0 0 0 0 0 0 0 0 0 0 0 0.45 0"/>
<feBlend mode="normal" in2="BackgroundImageFix" result="effect1_dropShadow_234_4"/>
<feBlend mode="normal" in="SourceGraphic" in2="effect1_dropShadow_234_4" result="shape"/>
</filter>
<filter id="filter8_d_234_4" x="1255.12" y="70.5664" width="166.469" height="135.777" filterUnits="userSpaceOnUse" color-interpolation-filters="sRGB">
<feFlood flood-opacity="0" result="BackgroundImageFix"/>
<feColorMatrix in="SourceAlpha" type="matrix" values="0 0 0 0 0 0 0 0 0 0 0 0 0 0 0 0 0 0 127 0" result="hardAlpha"/>
<feOffset dy="4"/>
<feGaussianBlur stdDeviation="2"/>
<feComposite in2="hardAlpha" operator="out"/>
<feColorMatrix type="matrix" values="0 0 0 0 0 0 0 0 0 0 0 0 0 0 0 0 0 0 0.3 0"/>
<feBlend mode="normal" in2="BackgroundImageFix" result="effect1_dropShadow_234_4"/>
<feBlend mode="normal" in="SourceGraphic" in2="effect1_dropShadow_234_4" result="shape"/>
</filter>
<filter id="filter9_d_234_4" x="906.615" y="298" width="180.726" height="61.2578" filterUnits="userSpaceOnUse" color-interpolation-filters="sRGB">
<feFlood flood-opacity="0" result="BackgroundImageFix"/>
<feColorMatrix in="SourceAlpha" type="matrix" values="0 0 0 0 0 0 0 0 0 0 0 0 0 0 0 0 0 0 127 0" result="hardAlpha"/>
<feOffset dy="4"/>
<feGaussianBlur stdDeviation="2"/>
<feComposite in2="hardAlpha" operator="out"/>
<feColorMatrix type="matrix" values="0 0 0 0 0 0 0 0 0 0 0 0 0 0 0 0 0 0 0.25 0"/>
<feBlend mode="normal" in2="BackgroundImageFix" result="effect1_dropShadow_234_4"/>
<feBlend mode="normal" in="SourceGraphic" in2="effect1_dropShadow_234_4" result="shape"/>
</filter>
<filter id="filter10_d_234_4" x="803.743" y="222.033" width="374.388" height="336.467" filterUnits="userSpaceOnUse" color-interpolation-filters="sRGB">
<feFlood flood-opacity="0" result="BackgroundImageFix"/>
<feColorMatrix in="SourceAlpha" type="matrix" values="0 0 0 0 0 0 0 0 0 0 0 0 0 0 0 0 0 0 127 0" result="hardAlpha"/>
<feOffset dx="5" dy="8"/>
<feGaussianBlur stdDeviation="7"/>
<feComposite in2="hardAlpha" operator="out"/>
<feColorMatrix type="matrix" values="0 0 0 0 0 0 0 0 0 0 0 0 0 0 0 0 0 0 0.35 0"/>
<feBlend mode="normal" in2="BackgroundImageFix" result="effect1_dropShadow_234_4"/>
<feBlend mode="normal" in="SourceGraphic" in2="effect1_dropShadow_234_4" result="shape"/>
</filter>
<filter id="filter11_d_234_4" x="646" y="441.395" width="104.924" height="104.406" filterUnits="userSpaceOnUse" color-interpolation-filters="sRGB">
<feFlood flood-opacity="0" result="BackgroundImageFix"/>
<feColorMatrix in="SourceAlpha" type="matrix" values="0 0 0 0 0 0 0 0 0 0 0 0 0 0 0 0 0 0 127 0" result="hardAlpha"/>
<feOffset dy="4"/>
<feGaussianBlur stdDeviation="2"/>
<feComposite in2="hardAlpha" operator="out"/>
<feColorMatrix type="matrix" values="0 0 0 0 0 0 0 0 0 0 0 0 0 0 0 0 0 0 0.3 0"/>
<feBlend mode="normal" in2="BackgroundImageFix" result="effect1_dropShadow_234_4"/>
<feBlend mode="normal" in="SourceGraphic" in2="effect1_dropShadow_234_4" result="shape"/>
</filter>
<filter id="filter12_d_234_4" x="524" y="521" width="31" height="32" filterUnits="userSpaceOnUse" color-interpolation-filters="sRGB">
<feFlood flood-opacity="0" result="BackgroundImageFix"/>
<feColorMatrix in="SourceAlpha" type="matrix" values="0 0 0 0 0 0 0 0 0 0 0 0 0 0 0 0 0 0 127 0" result="hardAlpha"/>
<feOffset dy="4"/>
<feGaussianBlur stdDeviation="2"/>
<feComposite in2="hardAlpha" operator="out"/>
<feColorMatrix type="matrix" values="0 0 0 0 0 0 0 0 0 0 0 0 0 0 0 0 0 0 0.3 0"/>
<feBlend mode="normal" in2="BackgroundImageFix" result="effect1_dropShadow_234_4"/>
<feBlend mode="normal" in="SourceGraphic" in2="effect1_dropShadow_234_4" result="shape"/>
</filter>
<filter id="filter13_d_234_4" x="177" y="527" width="22" height="22" filterUnits="userSpaceOnUse" color-interpolation-filters="sRGB">
<feFlood flood-opacity="0" result="BackgroundImageFix"/>
<feColorMatrix in="SourceAlpha" type="matrix" values="0 0 0 0 0 0 0 0 0 0 0 0 0 0 0 0 0 0 127 0" result="hardAlpha"/>
<feOffset dy="4"/>
<feGaussianBlur stdDeviation="2"/>
<feComposite in2="hardAlpha" operator="out"/>
<feColorMatrix type="matrix" values="0 0 0 0 0 0 0 0 0 0 0 0 0 0 0 0 0 0 0.3 0"/>
<feBlend mode="normal" in2="BackgroundImageFix" result="effect1_dropShadow_234_4"/>
<feBlend mode="normal" in="SourceGraphic" in2="effect1_dropShadow_234_4" result="shape"/>
</filter>
<linearGradient id="paint0_linear_234_4" x1="1205" y1="248.5" x2="1385.5" y2="452" gradientUnits="userSpaceOnUse">
<stop stop-color="#C4C4C4" stop-opacity="0"/>
<stop offset="0.0001" stop-color="#CAB6BF" stop-opacity="0.185185"/>
<stop offset="0.0002" stop-color="#D59AB5" stop-opacity="0.534627"/>
<stop offset="0.0003" stop-color="#FF99A3"/>
<stop offset="0.0004" stop-color="#F693A5" stop-opacity="0.959674"/>
<stop offset="0.137757" stop-color="#EE8DA8" stop-opacity="0.922009"/>
<stop offset="0.290314" stop-color="#EC8BA8" stop-opacity="0.912191"/>
<stop offset="0.316155" stop-color="#E687AA" stop-opacity="0.888157"/>
<stop offset="0.361205" stop-color="#E385AB" stop-opacity="0.87468"/>
<stop offset="0.387779" stop-color="#DE81AC" stop-opacity="0.85266"/>
<stop offset="0.387879" stop-color="#DC80AD" stop-opacity="0.856782"/>
<stop offset="0.401042" stop-color="#DB7FAD" stop-opacity="0.8595"/>
<stop offset="0.427083" stop-color="#D87DAE" stop-opacity="0.864876"/>
<stop offset="0.515625" stop-color="#CA73B3" stop-opacity="0.889309"/>
<stop offset="0.65625" stop-color="#B967B8" stop-opacity="0.91985"/>
<stop offset="0.78125" stop-color="#B263BB" stop-opacity="0.93205"/>
<stop offset="0.890625" stop-color="#A65ABF" stop-opacity="0.954161"/>
</linearGradient>
</defs>
</svg>
