<svg width="1306" height="1024" viewBox="0 0 1306 1024" fill="none" xmlns="http://www.w3.org/2000/svg">
<path d="M0 -3H573.154C571.561 34.4282 548.688 128.056 469.937 203.142C451.778 221.083 426.357 268.975 469.937 317.018C477.992 324.839 499.892 344.459 523.047 360.367L563.46 389.665C598.321 413.792 667.578 481.216 665.721 557.893C665.585 572.298 659.632 612.219 636.913 656.656C613.84 690.946 596.303 769.143 651.68 812.201C670.157 832.352 717.876 877.725 820 893.421C858.684 902.259 977.201 923.143 1141.8 935.975C1177.39 940.88 1259.66 965.352 1304 1024H0V-3Z" fill="white"/>
<path d="M0 -3V-3.5H-0.5V-3H0ZM573.154 -3L573.653 -2.97874L573.676 -3.5H573.154V-3ZM469.937 203.142L469.592 202.78L469.586 202.787L469.937 203.142ZM469.937 317.018L469.567 317.354L469.577 317.365L469.589 317.377L469.937 317.018ZM523.047 360.367L523.341 359.962L523.33 359.955L523.047 360.367ZM563.46 389.665L563.167 390.07L563.176 390.076L563.46 389.665ZM665.721 557.893L665.221 557.881L665.221 557.888L665.721 557.893ZM636.913 656.656L637.328 656.935L637.345 656.91L637.359 656.883L636.913 656.656ZM651.68 812.201L652.048 811.863L652.02 811.832L651.987 811.807L651.68 812.201ZM820 893.421L820.112 892.934L820.094 892.93L820.076 892.927L820 893.421ZM1141.8 935.975L1141.87 935.48L1141.86 935.478L1141.84 935.477L1141.8 935.975ZM1304 1024V1024.5H1305.01L1304.4 1023.7L1304 1024ZM0 1024H-0.5V1024.5H0V1024ZM0 -2.5H573.154V-3.5H0V-2.5ZM572.654 -3.02126C571.066 34.2983 548.235 127.797 469.592 202.781L470.282 203.504C549.14 128.315 572.056 34.5581 573.653 -2.97874L572.654 -3.02126ZM469.586 202.787C460.445 211.818 449.488 228.369 446.291 248.714C443.09 269.086 447.675 293.221 469.567 317.354L470.307 316.682C448.618 292.772 444.125 268.94 447.279 248.87C450.437 228.773 461.271 212.408 470.288 203.498L469.586 202.787ZM469.589 317.377C477.658 325.212 499.579 344.851 522.764 360.779L523.33 359.955C500.204 344.067 478.327 324.467 470.285 316.659L469.589 317.377ZM522.754 360.772L563.167 390.07L563.754 389.26L523.341 359.963L522.754 360.772ZM563.176 390.076C580.565 402.111 606.552 424.96 627.956 454.367C649.361 483.777 666.146 519.695 665.221 557.881L666.221 557.905C667.153 519.414 650.238 483.282 628.764 453.778C607.288 424.272 581.216 401.346 563.745 389.254L563.176 390.076ZM665.221 557.888C665.086 572.213 659.153 612.058 636.468 656.428L637.359 656.883C660.111 612.38 666.084 572.384 666.221 557.898L665.221 557.888ZM636.499 656.376C624.908 673.602 614.725 701.818 614.378 731.135C614.03 760.466 623.531 790.947 651.373 812.596L651.987 811.807C624.453 790.397 615.033 760.252 615.378 731.147C615.723 702.028 625.845 674 637.328 656.935L636.499 656.376ZM651.311 812.539C669.845 832.752 717.661 878.198 819.924 893.915L820.076 892.927C718.09 877.252 670.469 831.951 652.048 811.863L651.311 812.539ZM819.889 893.909C858.602 902.753 977.144 923.64 1141.76 936.474L1141.84 935.477C977.259 922.646 858.766 901.765 820.112 892.934L819.889 893.909ZM1141.73 936.471C1159.48 938.916 1188.9 946.247 1219.41 960.288C1249.92 974.33 1281.5 995.066 1303.6 1024.3L1304.4 1023.7C1282.16 994.286 1250.43 973.462 1219.83 959.38C1189.22 945.297 1159.71 937.939 1141.87 935.48L1141.73 936.471ZM1304 1023.5H0V1024.5H1304V1023.5ZM0.5 1024V-3H-0.5V1024H0.5Z" fill="#130C31"/>
</svg>
