<?xml version="1.0" encoding="UTF-8" standalone="no"?><!DOCTYPE svg PUBLIC "-//W3C//DTD SVG 1.1//EN" "http://www.w3.org/Graphics/SVG/1.1/DTD/svg11.dtd"><svg width="100%" height="100%" viewBox="0 0 38 199" version="1.1" xmlns="http://www.w3.org/2000/svg" xmlns:xlink="http://www.w3.org/1999/xlink" xml:space="preserve" style="fill-rule:evenodd;clip-rule:evenodd;stroke-linejoin:round;stroke-miterlimit:2;"><g id="tea"><path d="M17.569,27.456c0,-0 -7.458,2.214 -3.324,8.71c4.134,6.497 5.817,-6.643 3.324,-8.71Z" style="fill:#c9c29c;"/><path d="M15.866,19.203c0,-0 -5.257,-6.792 -1.621,-11.516c3.636,-4.725 2.784,-3.101 3.324,-5.758c0.541,-2.658 6.919,-3.335 5.114,3.014c-1.805,6.348 -5.072,12.93 -2.544,14.064c2.529,1.134 -0.718,4.474 -4.273,0.196Z" style="fill:#c9c29c;"/><path d="M4.706,175.214c-0,0 0.203,-2.501 -2.774,-2.076c-2.184,0.312 -3.009,-4.268 0.18,-4.467c3.189,-0.199 0.248,-5.286 2.594,-5.163c1.91,0.1 4.423,0.663 6.106,3.32c0.616,0.972 0.649,-2.961 2.642,-2.861c1.993,0.1 4.578,-0.65 7.641,-4.138c3.063,-3.488 4.372,0.684 2.14,4.83c-2.233,4.146 0.652,2.946 3.234,1.671c0,-0 6.966,-2.811 4.666,-0.145c-6.531,7.573 1.693,3.087 4.988,4.257c3.295,1.169 -2.251,2.821 -5.691,4.862c-3.618,2.148 -11.937,5.588 -25.726,-0.09Z" style="fill:#bcaf69;"/><clipPath id="_clip1"><path d="M4.706,175.214c-0,0 0.203,-2.501 -2.774,-2.076c-2.184,0.312 -3.009,-4.268 0.18,-4.467c3.189,-0.199 0.248,-5.286 2.594,-5.163c1.91,0.1 4.423,0.663 6.106,3.32c0.616,0.972 0.649,-2.961 2.642,-2.861c1.993,0.1 4.578,-0.65 7.641,-4.138c3.063,-3.488 4.372,0.684 2.14,4.83c-2.233,4.146 0.652,2.946 3.234,1.671c0,-0 6.966,-2.811 4.666,-0.145c-6.531,7.573 1.693,3.087 4.988,4.257c3.295,1.169 -2.251,2.821 -5.691,4.862c-3.618,2.148 -11.937,5.588 -25.726,-0.09Z"/></clipPath><g clip-path="url(#_clip1)"><path d="M2.994,180.771c0,-0 -2.111,-4.04 1.078,-4.239c3.19,-0.2 -2.921,-4.765 -1.294,-6.459c1.911,-1.989 4.639,-0.345 6.323,2.312c0.616,0.972 0.649,-2.961 2.642,-2.861c1.993,0.099 1.06,0.674 4.123,-2.814c3.063,-3.488 3.225,1.203 3.584,4.312c0.541,4.677 2.726,2.14 5.308,0.865c0,-0 6.965,-2.811 4.666,-0.145c-6.531,7.573 1.692,3.087 4.988,4.256c3.295,1.17 -1.895,3.603 -5.691,4.863c-3.796,1.26 -11.94,5.575 -25.727,-0.09Z" style="fill:#c9c29c;"/></g><path d="M17.569,53.96c-3.737,-3.436 -5.64,5.057 -5.762,22.265c-0.138,19.571 -2.388,30.828 -4.136,41.661c-1.565,9.696 4.117,29.27 2.088,53.036l0.047,6.01l3.999,0.77c0,0 1.589,-43.807 -1.915,-51.515c-3.503,-7.708 17.201,-61.636 5.679,-72.227Z" style="fill:#c9c29c;"/><path d="M4.706,175.214l2.631,20.299c0,-0 11.548,6.495 19.487,-0l3.608,-20.209c0,0 -11.036,6.075 -25.726,-0.09" style="fill:url(#_Linear2);"/></g><defs><linearGradient id="_Linear2" x1="0" y1="0" x2="1" y2="0" gradientUnits="userSpaceOnUse" gradientTransform="matrix(25.7265,0,0,23.1855,4.70578,186.807)"><stop offset="0" style="stop-color:#593a6e;stop-opacity:1"/><stop offset="1" style="stop-color:#af94af;stop-opacity:1"/></linearGradient></defs></svg>