<?xml version="1.0" encoding="UTF-8" standalone="no"?><!DOCTYPE svg PUBLIC "-//W3C//DTD SVG 1.1//EN" "http://www.w3.org/Graphics/SVG/1.1/DTD/svg11.dtd"><svg width="100%" height="100%" viewBox="0 0 271 438" version="1.1" xmlns="http://www.w3.org/2000/svg" xmlns:xlink="http://www.w3.org/1999/xlink" xml:space="preserve" style="fill-rule:evenodd;clip-rule:evenodd;stroke-linejoin:round;stroke-miterlimit:2;"><g id="person"><g id="tie"><path d="M123.827,176.133c-0,-0 -11.618,-11.593 -1.609,-30.094c10.008,-18.502 10.008,-47.931 2.123,-53.234c-7.886,-5.303 -13.042,1.369 -7.583,12.288c5.46,10.919 3.336,22.748 -3.639,34.88c-6.976,12.132 -8.611,28.341 10.708,36.16Z" style="fill:url(#_Linear1);"/><path d="M154.969,188.91c0,0 -104.378,35.29 -52.545,-122.433c0,0 1.346,-9.156 -15.517,-33.812c-5.25,-7.677 -3.544,-29.348 2.616,-32.665c0,0 9.763,6.407 20.378,17.629c10.616,11.222 -0.91,28.708 -0.606,58.128c0.217,21.04 -23.395,104.441 39.712,108.688l5.318,-3.261l0.644,7.726Z" style="fill:#f8f9ff;"/><clipPath id="_clip2"><path d="M154.969,188.91c0,0 -104.378,35.29 -52.545,-122.433c0,0 1.346,-9.156 -15.517,-33.812c-5.25,-7.677 -3.544,-29.348 2.616,-32.665c0,0 9.763,6.407 20.378,17.629c10.616,11.222 -0.91,28.708 -0.606,58.128c0.217,21.04 -23.395,104.441 39.712,108.688l5.318,-3.261l0.644,7.726Z"/></clipPath><g clip-path="url(#_clip2)"><path d="M83.785,32.029c-0,-0 20.731,23.591 24.523,49.036c-0,-0 34.452,-47.936 31.798,-51.433c-2.653,-3.497 -36.775,-34.586 -36.775,-34.586l-27.297,0l7.751,36.983Z" style="fill:#dddcdd;"/></g><path d="M173.008,166.016c-0,-0 -24.453,7.721 -21.894,18.973c1.492,6.562 16.531,6.965 24.147,3.75" style="fill:#a8d7fb;"/></g><path d="M166.425,83.641c0,0 -8.34,-28.233 3.392,-40.321c0,-0 5.185,20.976 16.739,-17.598c0,-0 7.73,5.518 13.19,-3.22c5.461,-8.737 8.189,6.439 21.759,-4.369c-0,0 1.114,11.213 17.737,22.391c13.965,9.39 21.923,28.936 19.493,39.699c-0,-0 7.118,2.927 8.363,-0.45c-0,-0 1.422,18.487 -11.91,28.086c-0,-0 6.221,-3.2 9.065,-2.666c0,-0 -9.243,40.174 -33.063,47.462c-20.52,-3.898 -31.313,1.12 -42.424,5.847l-22.341,-74.861Z" style="fill:url(#_Linear3);"/><path d="M172.537,75.757c-0,-0 -61.869,71.84 3.75,88.539c-0,0 22.088,-10.801 29.087,-11.801l-1.598,-25.44c0,0 24.672,-18.657 3.884,-22.548c-5,-0.936 -11.283,8.35 -11.283,8.35l-2.309,-7.163l-8.396,1.57c-0,0 5.24,-16.977 -13.135,-31.507" style="fill:#d3d3d2;"/><clipPath id="_clip4"><path d="M172.537,75.757c-0,-0 -61.869,71.84 3.75,88.539c-0,0 22.088,-10.801 29.087,-11.801l-1.598,-25.44c0,0 24.672,-18.657 3.884,-22.548c-5,-0.936 -11.283,8.35 -11.283,8.35l-2.309,-7.163l-8.396,1.57c-0,0 5.24,-16.977 -13.135,-31.507"/></clipPath><g clip-path="url(#_clip4)"><path d="M147.497,150.314c0,0 40.131,4.622 48.88,-37.457c-0.088,-13.867 6.618,-18.661 19.864,-20.305c-0,0 9.374,16.516 9.374,18.808c-0,2.291 -8.333,48.12 -8.333,48.12c0,0 -28.955,12.916 -31.247,12.916c-2.291,-0 -29.789,-2.708 -30.83,-6.458c-1.042,-3.75 -7.708,-15.624 -7.708,-15.624Z" style="fill:#b6b5b6;"/></g><path d="M154.969,188.91c0,0 -28.065,18.625 -34.698,48.476c-6.634,29.851 -18.37,40.822 -24.749,48.22c-1.032,1.198 -34.896,-18.208 -34.896,-18.208l-13.201,27.35l22.354,18.327l-4.51,4.42c0,0 24.128,21.053 34.971,33.81c0,0 4.146,-1.913 9.887,-7.335l-7.016,51.027c-0,0 104.53,44.312 135.146,42.679c-0,0 76.745,-197.773 -6.566,-276.659c-0,0 -64.571,10.276 -76.722,27.893Z" style="fill:url(#_Linear5);"/><clipPath id="_clip6"><path d="M154.969,188.91c0,0 -28.065,18.625 -34.698,48.476c-6.634,29.851 -18.37,40.822 -24.749,48.22c-1.032,1.198 -34.896,-18.208 -34.896,-18.208l-13.201,27.35l22.354,18.327l-4.51,4.42c0,0 24.128,21.053 34.971,33.81c0,0 4.146,-1.913 9.887,-7.335l-7.016,51.027c-0,0 104.53,44.312 135.146,42.679c-0,0 76.745,-197.773 -6.566,-276.659c-0,0 -64.571,10.276 -76.722,27.893Z"/></clipPath><g clip-path="url(#_clip6)"><path d="M231.691,161.017c-0,0 49.187,59.204 18.509,124.057c-17.67,37.352 -34.951,69.901 -106.017,66.017c0,0 50.873,6.991 28.349,31.068c-22.524,24.077 -37.67,32.62 -37.67,32.62l117.825,50.885c0,-0 33.373,-121.356 34.89,-131.217c1.517,-9.86 -6.345,-176.961 -55.886,-173.43" style="fill:#191245;"/><path d="M97.807,333.185l-8.998,6.078c0,0 -2.074,14.51 1.059,17.247c3.786,3.307 21.762,-11.607 22.246,-15.805l-14.307,-7.52Z" style="fill:#261b65;"/><path d="M51.255,294.748c-0,-0 2.817,3.355 6.559,7.219c15.102,15.592 57.538,53.485 110.071,48.977c34.469,-2.959 39.524,-12.734 49.957,-17.905c0,-0 -91.626,32.849 -166.587,-38.291Z" style="fill:#261b65;"/><path d="M112.665,260.773c-6.366,-7.371 14.353,-71.129 45.545,-75.418c-26.337,26.974 -26.622,32.874 -45.545,75.418Z" style="fill:#909be6;"/><path d="M132.001,294.748c-0,-0 53.55,5.259 59.657,-40.201c-4.084,14.558 -27.703,33.887 -59.657,40.201Z" style="fill:#909be6;"/></g><path d="M32.667,282.671l14.758,12.077l13.201,-27.35l-17.834,-11.09c-5.111,7.485 -9.092,15.819 -10.125,26.363Z" style="fill:#342891;"/><path d="M231.19,152.655c-0,-0 -24.767,-8.82 -61.029,15.194c-0,0 -4.436,22.76 16.395,26.618c0,0 40.698,-24.465 45.135,-33.45l-0.501,-8.362Z" style="fill:#342891;"/><clipPath id="_clip7"><path d="M231.19,152.655c-0,-0 -24.767,-8.82 -61.029,15.194c-0,0 -4.436,22.76 16.395,26.618c0,0 40.698,-24.465 45.135,-33.45l-0.501,-8.362Z"/></clipPath><g clip-path="url(#_clip7)"><path d="M231.691,161.017c-0,0 -22.134,11.124 -45.135,33.45c0,0 -13.687,6.133 7.144,9.991c0,-0 40.698,-24.465 45.135,-33.45l-7.144,-9.991Z" style="fill:#191246;"/></g><path d="M160.478,194.467c-0,0 -11.551,8.087 -21.5,40.855c-8.198,27.004 -19.594,52.252 -24.493,57.967c0,0 1.905,1.905 7.348,1.361c0,-0 16.601,-38.372 20.683,-59.055c2.445,-12.386 14.543,-36.581 17.962,-41.128Z" style="fill:#271579;"/><path d="M132.001,294.748c-0,-0 49.748,-14.604 59.657,-40.201c-0,-0 -4.129,35.401 -59.657,40.201Z" style="fill:#271579;"/><path d="M6.11,241.972c-4.977,4.091 -10.26,19.31 -1.131,22.353c9.129,3.043 13.476,1.304 14.346,7.39c0.869,6.086 5.165,16.26 13.342,10.956c-0,-0 0.005,-12.132 10.125,-26.363c-0,-0 -16.609,-30.835 -36.682,-14.336Z" style="fill:#d5d5d4;"/><clipPath id="_clip8"><path d="M6.11,241.972c-4.977,4.091 -10.26,19.31 -1.131,22.353c9.129,3.043 13.476,1.304 14.346,7.39c0.869,6.086 5.165,16.26 13.342,10.956c-0,-0 0.005,-12.132 10.125,-26.363c-0,-0 -16.609,-30.835 -36.682,-14.336Z"/></clipPath><g clip-path="url(#_clip8)"><path d="M-2.117,252.521c-4.215,-4.871 -7.467,32.28 1.662,35.323c9.129,3.043 13.477,1.304 14.346,7.39c0.869,6.086 5.165,16.259 13.342,10.955c-0,0 12.262,-26.663 -1.12,-40.514c-5.984,-6.192 -18.345,-1.728 -28.23,-13.154Z" style="fill:#a7a7a8;"/></g></g><defs><linearGradient id="_Linear1" x1="0" y1="0" x2="1" y2="0" gradientUnits="userSpaceOnUse" gradientTransform="matrix(-6.0522,73.3472,-287.85,-23.7517,119.377,90.9493)"><stop offset="0" style="stop-color:#fff;stop-opacity:1"/><stop offset="1" style="stop-color:#cccbd4;stop-opacity:1"/></linearGradient><linearGradient id="_Linear3" x1="0" y1="0" x2="1" y2="0" gradientUnits="userSpaceOnUse" gradientTransform="matrix(56.9285,95.4454,-131.969,78.7131,182.727,37.0286)"><stop offset="0" style="stop-color:#394c9a;stop-opacity:1"/><stop offset="0.5" style="stop-color:#1e1762;stop-opacity:1"/><stop offset="1" style="stop-color:#0c092b;stop-opacity:1"/></linearGradient><linearGradient id="_Linear5" x1="0" y1="0" x2="1" y2="0" gradientUnits="userSpaceOnUse" gradientTransform="matrix(110.505,167.244,-225.487,148.988,107.337,165.795)"><stop offset="0" style="stop-color:#5f94e5;stop-opacity:1"/><stop offset="0.5" style="stop-color:#3a369c;stop-opacity:1"/><stop offset="1" style="stop-color:#342791;stop-opacity:1"/></linearGradient></defs></svg>