<?xml version="1.0" encoding="UTF-8" standalone="no"?><!DOCTYPE svg PUBLIC "-//W3C//DTD SVG 1.1//EN" "http://www.w3.org/Graphics/SVG/1.1/DTD/svg11.dtd"><svg width="100%" height="100%" viewBox="0 0 61 227" version="1.1" xmlns="http://www.w3.org/2000/svg" xmlns:xlink="http://www.w3.org/1999/xlink" xml:space="preserve" style="fill-rule:evenodd;clip-rule:evenodd;stroke-linejoin:round;stroke-miterlimit:2;"><path id="computer" d="M23.957,0l36.37,195.733c-0,0 -29.185,-25.213 -33.422,-70.544c0,-6.121 -32.187,74.947 -2.948,85.816c7.536,2.802 25.908,0 25.908,0c9.802,0.296 9.777,14.649 0,15.418l-32.487,-0.826c-0,0 -21.011,-11.104 -16.827,-42.556c4.185,-31.453 8.017,-48.022 20.957,-71.838c-0,0 -8.532,-95.988 2.449,-111.203Z" style="fill:#f1f1f2;"/><clipPath id="_clip1"><path id="computer1" serif:id="computer" d="M23.957,0l36.37,195.733c-0,0 -29.185,-25.213 -33.422,-70.544c0,-6.121 -32.187,74.947 -2.948,85.816c7.536,2.802 25.908,0 25.908,0c9.802,0.296 9.777,14.649 0,15.418l-32.487,-0.826c-0,0 -21.011,-11.104 -16.827,-42.556c4.185,-31.453 8.017,-48.022 20.957,-71.838c-0,0 -8.532,-95.988 2.449,-111.203Z"/></clipPath><g clip-path="url(#_clip1)"><path d="M18.661,28.872l23.422,127.448c-0,-0 -4.411,-6.72 -14.352,-39.107c-7.434,-1.441 -27.18,50.857 -27.18,50.857c0,-0 -4.372,-26.225 16.139,-54.858c-0,-0 -3.739,-44.696 1.971,-84.34Z" style="fill:#a8a7b4;"/></g></svg>