<?xml version="1.0" encoding="UTF-8" standalone="no"?><!DOCTYPE svg PUBLIC "-//W3C//DTD SVG 1.1//EN" "http://www.w3.org/Graphics/SVG/1.1/DTD/svg11.dtd"><svg width="100%" height="100%" viewBox="0 0 89 87" version="1.1" xmlns="http://www.w3.org/2000/svg" xmlns:xlink="http://www.w3.org/1999/xlink" xml:space="preserve" style="fill-rule:evenodd;clip-rule:evenodd;stroke-linejoin:round;stroke-miterlimit:2;"><g id="shuttle"><path d="M0,0.014l0,11.977l26.124,26.124l0,19.214l2.304,4.255l8.003,-8.003l-0,5.202l22.37,-22.399l-5.202,0.006l7.995,-8.011l-4.257,-2.3l-19.214,0.019l-26.15,-26.098l-11.973,0.014Z" style="fill:#c2d9e3;"/><clipPath id="_clip1"><path d="M0,0.014l0,11.977l26.124,26.124l0,19.214l2.304,4.255l8.003,-8.003l-0,5.202l22.37,-22.399l-5.202,0.006l7.995,-8.011l-4.257,-2.3l-19.214,0.019l-26.15,-26.098l-11.973,0.014Z"/></clipPath><g clip-path="url(#_clip1)"><path d="M0,7.907l0.879,-6.905l6.864,-0.997l-10.22,-3.612l-1.094,12.17l3.571,-0.656Z" style="fill:#333f71;"/></g><path d="M36.431,58.783l-0,4.783l27.079,-27.079l-4.691,0l-22.388,22.296Z" style="fill:#333f71;"/><path d="M26.124,38.115l-2.917,20.841l1.626,4.999l3.595,-2.371l-2.304,-4.255l0,-19.214Z" style="fill:#333f71;"/><path d="M38.07,26.044l20.841,-2.915l4.999,1.627l-2.371,3.594l-4.255,-2.304l-19.214,-0.002Z" style="fill:#333f71;"/><path d="M37.226,37.621c1.125,-1.125 1.125,-2.952 0,-4.077l-20.709,-20.709c-1.125,-1.125 -2.952,-1.125 -4.077,-0c-1.125,1.125 -1.125,2.952 0,4.077l20.709,20.709c1.126,1.125 2.952,1.125 4.077,-0Z" style="fill:#333f71;"/><rect x="4.741" y="5.15" width="2.87" height="7.878" style="fill:#333f71;"/><path d="M4.741,5.15l-0,2.87l7.877,-0l0,-2.87l-7.877,0Z" style="fill:#333f71;"/><path d="M46.663,53.334l41.766,32.752l-35.474,-39.044l-6.292,6.292Z" style="fill:url(#_Radial2);"/></g><defs><radialGradient id="_Radial2" cx="0" cy="0" r="1" gradientUnits="userSpaceOnUse" gradientTransform="matrix(32.8996,26.9302,-26.9302,32.8996,49.9703,50.0265)"><stop offset="0" style="stop-color:#c99411;stop-opacity:1"/><stop offset="0.48" style="stop-color:#c99411;stop-opacity:0.235294"/><stop offset="1" style="stop-color:#c99411;stop-opacity:0"/></radialGradient></defs></svg>