<?xml version="1.0" encoding="UTF-8" standalone="no"?><!DOCTYPE svg PUBLIC "-//W3C//DTD SVG 1.1//EN" "http://www.w3.org/Graphics/SVG/1.1/DTD/svg11.dtd"><svg width="100%" height="100%" viewBox="0 0 81 134" version="1.1" xmlns="http://www.w3.org/2000/svg" xmlns:xlink="http://www.w3.org/1999/xlink" xml:space="preserve" style="fill-rule:evenodd;clip-rule:evenodd;stroke-linejoin:round;stroke-miterlimit:2;"><g id="pot"><path d="M0,71.298c0,0 42.329,-11.761 62.305,8.583c4.433,1.88 -38.296,17.627 -62.305,-8.583Z" style="fill:#585471;"/><path d="M0,71.298c0,0 1.551,41.656 5.15,52.159c3.318,9.684 37.508,13.238 43.409,6.144c2.883,-3.466 10.251,-28.055 14.066,-49.353c0.54,0.993 -38.18,16.066 -62.625,-8.95Z" style="fill:#e6e6e5;"/><clipPath id="_clip1"><path d="M0,71.298c0,0 1.551,41.656 5.15,52.159c3.318,9.684 37.508,13.238 43.409,6.144c2.883,-3.466 10.251,-28.055 14.066,-49.353c0.54,0.993 -38.18,16.066 -62.625,-8.95Z"/></clipPath><g clip-path="url(#_clip1)"><path d="M27.151,83.714c0,0 -24.072,16.237 -7.797,30.478c16.276,14.241 5.527,19.204 1.492,24.225c-4.035,5.02 -17.513,-3.978 -18.53,-5.836c-1.018,-1.859 -17.039,-44.848 -18.056,-47.385c-1.017,-2.538 -2.289,-20.339 -2.289,-20.339l35.603,3.059l9.577,15.798Z" style="fill:#a9a8b6;"/></g><path d="M13.056,71.633l-6.065,2.001c0,-0 10.861,10.22 23.437,10.476c10.757,0.22 23.456,-2.369 27.127,-4.653c0,0 -17.666,-11.758 -44.499,-7.824Z" style="fill:#3b3662;"/><path d="M23.506,83.008c-0,0 -33.765,-24.046 -3.673,-75.389c0,0 17.571,22.407 3.673,75.389Z" style="fill:#958439;"/><clipPath id="_clip2"><path d="M23.506,83.008c-0,0 -33.765,-24.046 -3.673,-75.389c0,0 17.571,22.407 3.673,75.389Z"/></clipPath><g clip-path="url(#_clip2)"><path d="M23.55,82.83c0,-0 -27.079,-27.043 -3.162,-75.211c0,0 27.471,35.698 3.162,75.211Z" style="fill:#77610a;"/></g><path d="M26.531,31.635c3.583,-12.204 10.791,-28.034 21.336,-31.635c11.704,0.867 13.287,86.953 -16.552,84.192c-1.066,-0.099 -7.01,-0.487 -7.765,-1.362c-6.258,-7.261 -1.071,-37.39 2.981,-51.195Z" style="fill:#958439;"/><clipPath id="_clip3"><path d="M26.531,31.635c3.583,-12.204 10.791,-28.034 21.336,-31.635c11.704,0.867 13.287,86.953 -16.552,84.192c-1.066,-0.099 -7.01,-0.487 -7.765,-1.362c-6.258,-7.261 -1.071,-37.39 2.981,-51.195Z"/></clipPath><g clip-path="url(#_clip3)"><path d="M22.738,82.83c-0,-0 -1.566,-65.917 25.271,-82.815c0,-0 12.376,3.821 14.622,10.323c2.245,6.503 2.968,28.661 2.727,37.573c-0.241,8.911 -23.748,39.093 -23.748,39.093l-18.872,-4.174Z" style="fill:#77610a;"/></g><path d="M44.781,48.982c6.165,-7.654 18.691,-27.293 36.18,-23.178c-0,0 -6.97,57.235 -47.08,58.453c-3.248,0.098 3.054,-25.533 10.9,-35.275Z" style="fill:#958439;"/><clipPath id="_clip4"><path d="M44.781,48.982c6.165,-7.654 18.691,-27.293 36.18,-23.178c-0,0 -6.97,57.235 -47.08,58.453c-3.248,0.098 3.054,-25.533 10.9,-35.275Z"/></clipPath><g clip-path="url(#_clip4)"><path d="M48.231,49.615c6.165,-7.654 22.767,-28.486 40.256,-24.371c0,-0 -15.369,66.268 -55.479,67.485c-3.248,0.099 7.376,-33.372 15.223,-43.114Z" style="fill:#77610a;"/></g><path d="M33.588,84.257c-0,-0 -14.286,-26.934 10.5,-53.314c-0,-0 13.654,37.586 -10.5,53.314Z" style="fill:#958439;"/><clipPath id="_clip5"><path d="M33.588,84.257c-0,-0 -14.286,-26.934 10.5,-53.314c-0,-0 13.654,37.586 -10.5,53.314Z"/></clipPath><g clip-path="url(#_clip5)"><path d="M35.001,87.787c-0,0 -11.279,-29.105 9.292,-57.492c-0,-0 14.862,41.765 -9.292,57.492Z" style="fill:#77610a;"/></g></g></svg>