<?xml version="1.0" encoding="UTF-8" standalone="no"?><!DOCTYPE svg PUBLIC "-//W3C//DTD SVG 1.1//EN" "http://www.w3.org/Graphics/SVG/1.1/DTD/svg11.dtd"><svg width="100%" height="100%" viewBox="0 0 83 15" version="1.1" xmlns="http://www.w3.org/2000/svg" xmlns:xlink="http://www.w3.org/1999/xlink" xml:space="preserve" style="fill-rule:evenodd;clip-rule:evenodd;stroke-linejoin:round;stroke-miterlimit:2;"><g id="satellite"><rect x="-0" y="2.059" width="31.484" height="10.649" style="fill:#c7dcec;"/><rect x="50.877" y="2.059" width="31.484" height="10.649" style="fill:#c7dcec;"/><g><circle cx="41.18" cy="7.383" r="7.383" style="fill:#c7dcec;"/><circle cx="41.18" cy="7.383" r="3.944" style="fill:#3f328c;"/></g><g><path d="M4.509,4.174l-1.605,1.605l1.605,1.604l1.605,-1.604l-1.605,-1.605Z" style="fill:#3f328c;"/><path d="M6.114,5.779l-1.605,1.604l1.605,1.605l1.604,-1.605l-1.604,-1.604Z" style="fill:#3f328c;"/><path d="M9.323,5.779l-1.605,1.604l1.605,1.605l1.605,-1.605l-1.605,-1.604Z" style="fill:#3f328c;"/><path d="M12.533,5.779l-1.605,1.604l1.605,1.605l1.604,-1.605l-1.604,-1.604Z" style="fill:#3f328c;"/><path d="M15.742,5.779l-1.605,1.604l1.605,1.605l1.605,-1.605l-1.605,-1.604Z" style="fill:#3f328c;"/><path d="M18.951,5.779l-1.604,1.604l1.604,1.605l1.605,-1.605l-1.605,-1.604Z" style="fill:#3f328c;"/><path d="M22.161,5.779l-1.605,1.604l1.605,1.605l1.605,-1.605l-1.605,-1.604Z" style="fill:#3f328c;"/><path d="M25.37,5.779l-1.604,1.604l1.604,1.605l1.605,-1.605l-1.605,-1.604Z" style="fill:#3f328c;"/><path d="M7.718,4.174l-1.604,1.605l1.604,1.604l1.605,-1.604l-1.605,-1.605Z" style="fill:#3f328c;"/><path d="M10.928,4.174l-1.605,1.605l1.605,1.604l1.605,-1.604l-1.605,-1.605Z" style="fill:#3f328c;"/><path d="M14.137,4.174l-1.604,1.605l1.604,1.604l1.605,-1.604l-1.605,-1.605Z" style="fill:#3f328c;"/><path d="M17.347,4.174l-1.605,1.605l1.605,1.604l1.604,-1.604l-1.604,-1.605Z" style="fill:#3f328c;"/><path d="M20.556,4.174l-1.605,1.605l1.605,1.604l1.605,-1.604l-1.605,-1.605Z" style="fill:#3f328c;"/><path d="M23.766,4.174l-1.605,1.605l1.605,1.604l1.604,-1.604l-1.604,-1.605Z" style="fill:#3f328c;"/><path d="M26.975,4.174l-1.605,1.605l1.605,1.604l1.605,-1.604l-1.605,-1.605Z" style="fill:#3f328c;"/><path d="M4.509,7.383l-1.605,1.605l1.605,1.605l1.605,-1.605l-1.605,-1.605Z" style="fill:#3f328c;"/><path d="M7.718,7.383l-1.604,1.605l1.604,1.605l1.605,-1.605l-1.605,-1.605Z" style="fill:#3f328c;"/><path d="M10.928,7.383l-1.605,1.605l1.605,1.605l1.605,-1.605l-1.605,-1.605Z" style="fill:#3f328c;"/><path d="M14.137,7.383l-1.604,1.605l1.604,1.605l1.605,-1.605l-1.605,-1.605Z" style="fill:#3f328c;"/><path d="M17.347,7.383l-1.605,1.605l1.605,1.605l1.604,-1.605l-1.604,-1.605Z" style="fill:#3f328c;"/><path d="M20.556,7.383l-1.605,1.605l1.605,1.605l1.605,-1.605l-1.605,-1.605Z" style="fill:#3f328c;"/><path d="M23.766,7.383l-1.605,1.605l1.605,1.605l1.604,-1.605l-1.604,-1.605Z" style="fill:#3f328c;"/><path d="M26.975,7.383l-1.605,1.605l1.605,1.605l1.605,-1.605l-1.605,-1.605Z" style="fill:#3f328c;"/></g><g><path d="M55.385,4.174l-1.604,1.605l1.604,1.604l1.605,-1.604l-1.605,-1.605Z" style="fill:#3f328c;"/><path d="M56.99,5.779l-1.605,1.604l1.605,1.605l1.605,-1.605l-1.605,-1.604Z" style="fill:#3f328c;"/><path d="M60.2,5.779l-1.605,1.604l1.605,1.605l1.604,-1.605l-1.604,-1.604Z" style="fill:#3f328c;"/><path d="M63.409,5.779l-1.605,1.604l1.605,1.605l1.605,-1.605l-1.605,-1.604Z" style="fill:#3f328c;"/><path d="M66.619,5.779l-1.605,1.604l1.605,1.605l1.604,-1.605l-1.604,-1.604Z" style="fill:#3f328c;"/><path d="M69.828,5.779l-1.605,1.604l1.605,1.605l1.605,-1.605l-1.605,-1.604Z" style="fill:#3f328c;"/><path d="M73.037,5.779l-1.604,1.604l1.604,1.605l1.605,-1.605l-1.605,-1.604Z" style="fill:#3f328c;"/><path d="M76.247,5.779l-1.605,1.604l1.605,1.605l1.605,-1.605l-1.605,-1.604Z" style="fill:#3f328c;"/><path d="M58.595,4.174l-1.605,1.605l1.605,1.604l1.605,-1.604l-1.605,-1.605Z" style="fill:#3f328c;"/><path d="M61.804,4.174l-1.604,1.605l1.604,1.604l1.605,-1.604l-1.605,-1.605Z" style="fill:#3f328c;"/><path d="M65.014,4.174l-1.605,1.605l1.605,1.604l1.605,-1.604l-1.605,-1.605Z" style="fill:#3f328c;"/><path d="M68.223,4.174l-1.604,1.605l1.604,1.604l1.605,-1.604l-1.605,-1.605Z" style="fill:#3f328c;"/><path d="M71.433,4.174l-1.605,1.605l1.605,1.604l1.604,-1.604l-1.604,-1.605Z" style="fill:#3f328c;"/><path d="M74.642,4.174l-1.605,1.605l1.605,1.604l1.605,-1.604l-1.605,-1.605Z" style="fill:#3f328c;"/><path d="M77.852,4.174l-1.605,1.605l1.605,1.604l1.604,-1.604l-1.604,-1.605Z" style="fill:#3f328c;"/><path d="M55.385,7.383l-1.604,1.605l1.604,1.605l1.605,-1.605l-1.605,-1.605Z" style="fill:#3f328c;"/><path d="M58.595,7.383l-1.605,1.605l1.605,1.605l1.605,-1.605l-1.605,-1.605Z" style="fill:#3f328c;"/><path d="M61.804,7.383l-1.604,1.605l1.604,1.605l1.605,-1.605l-1.605,-1.605Z" style="fill:#3f328c;"/><path d="M65.014,7.383l-1.605,1.605l1.605,1.605l1.605,-1.605l-1.605,-1.605Z" style="fill:#3f328c;"/><path d="M68.223,7.383l-1.604,1.605l1.604,1.605l1.605,-1.605l-1.605,-1.605Z" style="fill:#3f328c;"/><path d="M71.433,7.383l-1.605,1.605l1.605,1.605l1.604,-1.605l-1.604,-1.605Z" style="fill:#3f328c;"/><path d="M74.642,7.383l-1.605,1.605l1.605,1.605l1.605,-1.605l-1.605,-1.605Z" style="fill:#3f328c;"/><path d="M77.852,7.383l-1.605,1.605l1.605,1.605l1.604,-1.605l-1.604,-1.605Z" style="fill:#3f328c;"/></g></g></svg>